<svg width="353" height="386" viewBox="0 0 353 386" fill="none" xmlns="http://www.w3.org/2000/svg">
<path d="M307.069 193.516C307.069 214.482 320.687 241.406 347.854 241.406H353V386H217.26V384.509C217.26 348.374 201.272 340.588 180.113 340.588C159.985 340.588 144.057 348.374 144.057 384.509V386H0.00040979V196.774C0.00040979 194.53 0.000408305 193.512 0.000392833 191.744C0.00036784 188.888 0.000318588 185.619 0.0002717 183.618C5.52773e-05 174.381 -0.000272805 171.704 0.00040979 152.078V0.00309423L180.294 0.00294164C201.31 0.00294164 168.754 -0.00510243 209.344 0.00541356L353 0.00309423V146.221H347.854C320.687 146.221 307.069 172.55 307.069 193.516Z" fill="#F9D2D2"/>
</svg>
