<svg width="459" height="386" viewBox="0 0 459 386" fill="none" xmlns="http://www.w3.org/2000/svg">
<path opacity="0.8" d="M0 191.452C0 223.447 20.1815 234.283 43.9853 234.283V386H183.186C183.186 386 181.634 367.422 188.361 356.07C195.088 344.717 206.99 335.944 227.689 335.944C247.353 335.944 272.174 342.652 272.174 386H413.066V231.473H421.383C444.046 231.473 459 216.419 459 193.819C459 171.347 444.046 152.085 421.383 152.085H413.066V0.0145321H255.561V0.0752537C238.139 -0.0043387 238.038 4.31068e-05 215.233 4.31068e-05C192.569 4.31068e-05 192.327 4.31068e-05 181.755 4.31068e-05L173.019 0.0145321H43.9853V150.684C20.1815 150.684 0 161.005 0 191.452Z" fill="#4B510B"/>
</svg>
