<svg width="400" height="386" viewBox="0 0 400 386" fill="none" xmlns="http://www.w3.org/2000/svg">
<path d="M4.5 146H0V0H114.758C114.758 36.1353 142.383 58.7372 176.107 58.7372C209.951 58.7372 237.696 36.1353 237.696 0H357.166V152.075C374.223 152.075 400 159.973 400 192.484C400 227 371.735 227 357.24 227H357.166V385.997H214.735C214.735 354.005 199.517 345.233 176.774 345.233C151.447 345.233 138.078 369.484 138.078 385.997H0V238.54H4.36859C29 239 43.5 215.5 43.5 192.5C43.5 169.5 33.6314 147.906 4.5 146Z" fill="#FBD765"/>
</svg>
