<svg width="360" height="386" viewBox="0 0 360 386" fill="none" xmlns="http://www.w3.org/2000/svg">
<path d="M46 193C46 182.744 38.5 144.594 5.38193 144.594H0.204376V0H140.784V1.4906C140.784 28.5 156.21 38.5 177.5 38.5C197.752 38.5 214.441 26.5 214.441 1.4906V0H359.39V148.075V167.426V185.226C359.39 187.47 359.39 188.488 359.39 190.256C359.39 193.112 359.39 196.381 359.39 198.382C359.39 207.619 359.39 210.296 359.39 229.922L359.39 385.995L218.5 385.997C189.79 385.997 199.245 385.997 177.979 385.997C156.834 385.997 189.591 386.005 148.75 385.995L139.287 385.997H0.204376V235.779H5.38193C34.5 235.779 46 203.256 46 193Z" fill="#F1D0BB"/>
</svg>
