<svg width="368" height="460" viewBox="0 0 368 460" fill="none" xmlns="http://www.w3.org/2000/svg">
<path d="M182.524 459.5C213.027 459.5 223.358 439.318 223.358 415.515L368 415.515L368 274.453C352.494 274.453 327.034 260.497 327.034 231.551C327.034 202.605 341.124 183.48 368 183.48V46.4335L220.678 46.4335V38.1174C220.678 15.4538 204.546 0 183 0C161.576 0 144.993 15.4538 144.993 38.1174V46.4335L0.0138544 46.4335L0.0138544 203.939H0.0717444C-0.00413637 221.361 4.10966e-05 221.462 4.10966e-05 244.267C4.10966e-05 266.931 4.10966e-05 267.173 4.10966e-05 277.745L0.0138544 286.481L0.0138544 415.515H143.658C143.658 439.318 153.497 459.5 182.524 459.5Z" fill="#DFEFA9"/>
</svg>
