<svg width="445" height="407" viewBox="0 0 445 407" fill="none" xmlns="http://www.w3.org/2000/svg">
<path d="M0 220.626C0 251.276 30.6153 261.063 42.6438 261.063V407H177.599C177.599 407 176.094 389.203 182.616 378.327C189.138 367.451 200.676 359.047 220.744 359.047C239.808 359.047 263.873 365.474 263.873 407H400.468V258.965H408.53C430.502 258.965 445 244.544 445 222.894C445 201.366 430.502 182.913 408.53 182.913H400.468V37.2317L254 37.232C254 37.232 255.623 -0.517893 221.5 0C187.377 0.517893 188.5 37.2317 188.5 37.2317L42.6438 37.2317V181.571C31.1165 181.571 0 191.459 0 220.626Z" fill="#D21E1F"/>
</svg>
