<svg width="277" height="310" viewBox="0 0 277 310" fill="none" xmlns="http://www.w3.org/2000/svg">
<path d="M108.985 33.3636V33.8636H108.485H0.5V134.383C0.696991 134.373 0.943512 134.365 1.23428 134.361C2.04086 134.35 3.18918 134.377 4.56561 134.526C7.31625 134.824 10.9918 135.61 14.6728 137.568C18.3589 139.53 22.0428 142.664 24.8013 147.64C27.5581 152.614 29.3759 159.4 29.3759 168.648C29.3759 187.166 22.0839 196.973 14.7249 202.131C11.0579 204.701 7.39294 206.103 4.64526 206.864C3.27081 207.245 2.12378 207.465 1.31772 207.591C0.986633 207.642 0.712921 207.678 0.504425 207.702L1.4968 309.5H105.253V303.566C105.253 301.051 106.21 293.821 110.973 287.205C115.759 280.557 124.35 274.583 139.505 274.583C154.664 274.583 162.985 280.657 167.489 287.696C171.969 294.698 172.63 302.586 172.63 306.189V309.5H222.631H276.495L275.589 210.361C275.311 210.351 274.921 210.333 274.435 210.299C273.395 210.225 271.911 210.079 270.132 209.786C266.577 209.201 261.829 208.03 257.075 205.683C252.319 203.335 247.547 199.805 243.965 194.5C240.38 189.191 238.008 182.134 238.008 172.77C238.008 154.007 247.528 143.739 257.044 138.187C261.793 135.417 266.536 133.821 270.09 132.917C271.868 132.465 273.351 132.185 274.391 132.018C274.901 131.937 275.304 131.882 275.585 131.847L275.499 33.8636H168.262H167.762V33.3636C167.762 24.3915 165.927 16.1742 161.451 10.2111C156.994 4.27274 149.866 0.5 139.111 0.5C127.794 0.5 120.296 4.2796 115.612 10.2205C110.911 16.1825 108.985 24.3958 108.985 33.3636Z" stroke="black"/>
</svg>
