<svg width="277" height="310" viewBox="0 0 277 310" fill="none" xmlns="http://www.w3.org/2000/svg">
<path d="M139.111 4.48944e-06C116.234 4.48944e-06 108.485 15.308 108.485 33.3636H-1.86731e-06V134.918C-1.86731e-06 134.918 28.8759 131.92 28.8759 168.648C28.8759 205.375 -1.86731e-06 207.249 -1.86731e-06 207.249L1.00164 310H105.753V303.566C105.753 298.693 109.504 275.083 139.505 275.083C169.505 275.083 172.13 299.068 172.13 306.189V310H222.631H277L276.085 209.872C276.085 209.872 238.508 209.872 238.508 172.77C238.508 135.668 276.085 132.295 276.085 132.295L275.998 33.3636H168.262C168.262 15.308 160.882 4.48944e-06 139.111 4.48944e-06Z" fill="#D21E1F"/>
</svg>
