<svg width="281" height="258" viewBox="0 0 281 258" fill="none" xmlns="http://www.w3.org/2000/svg">
<path d="M-6.55651e-06 143.954C-6.55651e-06 169.824 29.6118 170.751 29.6118 170.751V258L117.265 257.377C117.265 257.377 117.221 229.333 143.775 229.333C170.329 229.333 169.66 258 169.66 258H257.3L257.3 168.882C257.3 168.882 281 165.145 281 140.841C281 116.536 257.3 114.353 257.3 114.353V27.5792L171.22 27.5792C171.22 27.5792 172.502 0 145.022 0C117.543 0 119.064 27.5792 119.064 27.5792L29.6118 27.5792V79.1073L29.6118 114.353C29.6118 114.353 -6.55651e-06 113.418 -6.55651e-06 143.954Z" fill="#4B510B"/>
</svg>
