<svg width="619" height="450" viewBox="0 0 619 450" fill="none" xmlns="http://www.w3.org/2000/svg">
<mask id="path-1-inside-1_200_72" fill="white">
<path fill-rule="evenodd" clip-rule="evenodd" d="M561.086 0H0V450H561.086V284.964C593.257 283.865 619 257.439 619 225C619 192.561 593.257 166.135 561.086 165.036V0Z"/>
</mask>
<path d="M0 0V-2H-2V0H0ZM561.086 0H563.086V-2H561.086V0ZM0 450H-2V452H0V450ZM561.086 450V452H563.086V450H561.086ZM561.086 284.964L561.018 282.966L559.086 283.032V284.964H561.086ZM561.086 165.036H559.086V166.968L561.018 167.034L561.086 165.036ZM0 2H561.086V-2H0V2ZM2 450V0H-2V450H2ZM561.086 448H0V452H561.086V448ZM559.086 284.964V450H563.086V284.964H559.086ZM617 225C617 256.357 592.115 281.903 561.018 282.966L561.154 286.963C594.399 285.827 621 258.521 621 225H617ZM561.018 167.034C592.115 168.097 617 193.643 617 225H621C621 191.479 594.399 164.173 561.154 163.037L561.018 167.034ZM559.086 0V165.036H563.086V0H559.086Z" fill="#FFB5B5" mask="url(#path-1-inside-1_200_72)"/>
</svg>
