<svg width="152" height="170" viewBox="0 0 152 170" fill="none" xmlns="http://www.w3.org/2000/svg">
<path d="M76.3355 1.26914e-06C63.7817 1.26914e-06 59.5296 8.39471 59.5296 18.2962H2.86599e-07V73.9873C2.86599e-07 73.9873 15.8453 72.3431 15.8453 92.4841C15.8453 112.625 2.86599e-07 113.653 2.86599e-07 113.653L0.549638 170H58.0307V166.471C58.0307 163.8 60.0888 150.852 76.5513 150.852C93.0138 150.852 94.4542 164.005 94.4542 167.91V170H122.166H152L151.498 115.091C151.498 115.091 130.878 115.091 130.878 94.7448C130.878 74.3983 151.498 72.5486 151.498 72.5486L151.45 18.2962H92.3316C92.3316 8.39471 88.2819 1.26914e-06 76.3355 1.26914e-06Z" fill="#4B510B"/>
</svg>
