<svg width="451" height="414" viewBox="0 0 451 414" fill="none" xmlns="http://www.w3.org/2000/svg">
<path d="M0 230.996C0 272.508 47.4737 273.996 47.4737 273.996V414L188 413C188 413 187.929 368 230.5 368C273.071 368 272 414 272 414H412.505V270.996C412.505 270.996 450.5 265 450.5 226C450.5 187 412.505 183.496 412.505 183.496V44.255L274.5 44.255C274.5 44.255 276.555 0 232.5 0C188.445 0 190.884 44.255 190.884 44.255L47.4737 44.255V126.94V183.496C47.4737 183.496 0 181.996 0 230.996Z" fill="#4B510B"/>
</svg>
