<svg width="451" height="414" viewBox="0 0 451 414" fill="none" xmlns="http://www.w3.org/2000/svg">
<path d="M47.4893 273.496L47.9737 273.512V273.996V413.496L187.509 412.503C187.509 412.496 187.51 412.488 187.51 412.48C187.52 412.145 187.54 411.655 187.581 411.033C187.663 409.79 187.828 408.018 188.16 405.892C188.823 401.642 190.155 395.968 192.833 390.287C195.512 384.605 199.544 378.903 205.611 374.623C211.683 370.339 219.764 367.5 230.5 367.5C241.239 367.5 249.26 370.403 255.24 374.784C261.214 379.162 265.12 384.991 267.672 390.799C270.224 396.605 271.429 402.405 271.998 406.748C272.283 408.92 272.408 410.732 272.462 412.002C272.49 412.637 272.499 413.137 272.502 413.48C272.502 413.486 272.502 413.493 272.502 413.5H412.005V270.996V270.569L412.427 270.502L412.428 270.502L412.432 270.501L412.45 270.498C412.467 270.496 412.493 270.491 412.528 270.485C412.597 270.473 412.701 270.454 412.837 270.428C413.11 270.376 413.512 270.294 414.025 270.175C415.051 269.938 416.52 269.555 418.285 268.975C421.817 267.814 426.522 265.863 431.224 262.708C440.612 256.408 450 245.303 450 226C450 206.702 440.617 196.226 431.243 190.551C426.546 187.707 421.844 186.066 418.314 185.137C416.55 184.672 415.081 184.386 414.056 184.216C413.543 184.132 413.141 184.076 412.869 184.041C412.733 184.024 412.629 184.012 412.56 184.005C412.525 184.001 412.499 183.998 412.482 183.997L412.464 183.995L412.46 183.994L412.459 183.994L412.005 183.952V183.496V44.755L274.5 44.755H273.976L274.001 44.2318L274.001 44.2308L274.001 44.2257L274.002 44.2037C274.002 44.1954 274.002 44.1852 274.003 44.1732C274.003 44.1566 274.004 44.1364 274.005 44.1129C274.007 44.0319 274.01 43.9105 274.012 43.7514C274.017 43.4332 274.017 42.9641 274.002 42.3658C273.973 41.169 273.882 39.4561 273.636 37.3995C273.144 33.2836 272.034 27.8049 269.565 22.3332C267.096 16.8638 263.275 11.412 257.364 7.32616C251.456 3.24244 243.426 0.5 232.5 0.5C221.574 0.5 213.569 3.24245 207.697 7.32536C201.823 11.4104 198.049 16.8611 195.629 22.3299C193.207 27.801 192.144 33.2794 191.688 37.3953C191.46 39.4518 191.384 41.1647 191.365 42.3615C191.355 42.9598 191.36 43.4288 191.367 43.7471C191.371 43.9062 191.375 44.0276 191.378 44.1086C191.379 44.1491 191.381 44.1794 191.382 44.1994L191.383 44.2214L191.383 44.2265L191.383 44.2275L191.412 44.755H190.884L47.9737 44.755V126.94V183.496V184.012L47.4579 183.996L47.4583 183.986C47.4579 183.996 47.4579 183.996 47.4579 183.996L47.4568 183.996L47.4513 183.996L47.4276 183.995C47.4062 183.995 47.3735 183.994 47.33 183.994C47.2431 183.992 47.1127 183.991 46.942 183.992C46.6003 183.993 46.0969 184 45.4549 184.027C44.1705 184.081 42.3325 184.213 40.1255 184.523C35.709 185.143 29.8287 186.476 23.9548 189.321C18.0836 192.166 12.2263 196.518 7.83521 203.178C3.4455 209.835 0.5 218.83 0.5 230.996C0.5 241.272 3.43539 249.042 7.81879 254.929C12.207 260.822 18.0665 264.854 23.949 267.61C29.8317 270.367 35.7206 271.84 40.1431 272.623C42.3532 273.014 44.1939 273.233 45.4805 273.353C46.1237 273.414 46.6282 273.449 46.9707 273.47C47.0498 273.475 47.1202 273.479 47.1817 273.482C47.2535 273.486 47.3131 273.489 47.3602 273.491L47.4029 273.493C47.426 273.494 47.4445 273.495 47.4584 273.495L47.4824 273.496L47.488 273.496L47.4893 273.496Z" stroke="black"/>
</svg>
