<svg width="96" height="106" viewBox="0 0 96 106" fill="none" xmlns="http://www.w3.org/2000/svg">
<path d="M38.0976 11.4082V11.9082H37.5976H0.5V45.6131C0.784264 45.612 1.16671 45.6241 1.61673 45.6721C2.59779 45.7768 3.91414 46.0537 5.23619 46.7478C6.5632 47.4445 7.8893 48.5585 8.87977 50.3215C9.86861 52.0815 10.5075 54.4607 10.5075 57.6666C10.5075 64.1037 7.93015 67.56 5.28814 69.3869C3.9798 70.2916 2.6737 70.7846 1.69544 71.0518C1.20566 71.1856 0.795891 71.2634 0.505951 71.3079C0.505432 71.308 0.504913 71.3081 0.504395 71.3082L0.842224 105.5H36.151V103.8C36.151 102.887 36.4956 100.342 38.1967 98.0108C39.9203 95.6485 42.9983 93.5606 48.3482 93.5606C53.7031 93.5606 56.694 95.6861 58.3203 98.1936C59.9228 100.665 60.1553 103.436 60.1553 104.697V105.5H77.1574H95.4953L95.1873 72.2434C95.1557 72.2414 95.1228 72.2392 95.0886 72.2369C94.7195 72.2112 94.1955 72.16 93.5679 72.0582C92.3151 71.8548 90.6369 71.447 88.9524 70.6265C87.2662 69.8052 85.5629 68.5648 84.282 66.693C82.9985 64.8175 82.1597 62.3381 82.1597 59.0762C82.1597 52.518 85.545 48.9093 88.9219 46.9654C90.6007 45.999 92.2748 45.4437 93.5263 45.1297C94.1531 44.9724 94.6765 44.875 95.0452 44.8167C95.0936 44.809 95.1395 44.802 95.1825 44.7957L95.1533 11.9082H58.3147H57.8147V11.4082C57.8147 8.37817 57.1852 5.6508 55.6948 3.69164C54.2225 1.75627 51.8562 0.5 48.2119 0.5C44.3667 0.5 41.8709 1.76293 40.3221 3.70105C38.7573 5.65915 38.0976 8.38256 38.0976 11.4082Z" stroke="black"/>
</svg>
