<svg width="73" height="81" viewBox="0 0 73 81" fill="none" xmlns="http://www.w3.org/2000/svg">
<path d="M36.6611 -1.57043e-06C30.632 -1.57043e-06 28.5899 3.99983 28.5899 8.71758H-1.96231e-06V35.2528C-1.96231e-06 35.2528 7.60989 34.4694 7.60989 44.066C7.60989 53.6625 -1.96231e-06 54.1522 -1.96231e-06 54.1522L0.263969 81H27.87V79.3187C27.87 78.0457 28.8585 71.8765 36.7648 71.8765C44.6711 71.8765 45.3629 78.1436 45.3629 80.0042V81H58.6717H73L72.7589 54.8376C72.7589 54.8376 62.8558 54.8376 62.8558 45.1431C62.8558 35.4486 72.7589 34.5673 72.7589 34.5673L72.7361 8.71758H44.3435C44.3435 3.99983 42.3986 -1.57043e-06 36.6611 -1.57043e-06Z" fill="#4B510B"/>
</svg>
