<svg width="88" height="81" viewBox="0 0 88 81" fill="none" xmlns="http://www.w3.org/2000/svg">
<path d="M-2.10106e-06 45.1949C-2.10106e-06 53.3168 9.27344 53.6079 9.27344 53.6079V81L36.7236 80.8043C36.7236 80.8043 36.7097 72 45.0255 72C53.3413 72 53.1321 81 53.1321 81H80.5781V53.021C80.5781 53.021 88 51.8478 88 44.2174C88 36.587 80.5781 35.9015 80.5781 35.9015V8.65859L53.6204 8.65859C53.6204 8.65859 54.0218 0 45.4162 0C36.8106 0 37.287 8.65859 37.287 8.65859L9.27344 8.65859V24.836V35.9015C9.27344 35.9015 -2.10106e-06 35.608 -2.10106e-06 45.1949Z" fill="#4B510B"/>
</svg>
