<svg width="28" height="33" viewBox="0 0 28 33" fill="none" xmlns="http://www.w3.org/2000/svg">
<path d="M0 1.35499L0 12.3934C0 12.8438 0.246281 13.251 0.658768 13.483C1.07798 13.7188 1.58972 13.7326 2.02778 13.5193C2.38173 13.347 2.75552 13.2594 3.13941 13.2594C4.69044 13.2594 6.42551 14.7815 6.42551 16.8185C6.42551 18.8554 4.69044 20.3772 3.13941 20.3772C2.75552 20.3772 2.38173 20.2897 2.02744 20.1173C1.58972 19.904 1.07798 19.9178 0.658768 20.1536C0.246281 20.3857 0 20.7929 0 21.2429L0 24.8204C0 25.5269 0.618058 26.1014 1.3781 26.1014L9.23016 26.1108C8.94047 26.625 8.79344 27.1726 8.79344 27.7387C8.79344 30.048 11.2263 32.074 14 32.074C16.7737 32.074 19.2066 30.048 19.2066 27.7387C19.2066 27.1726 19.0595 26.625 18.7601 26.1014H26.6219C27.3819 26.1014 28 25.5269 28 24.8204L28 13.7817C28 13.3313 27.7537 12.9238 27.3409 12.6921C26.9217 12.4563 26.4099 12.4428 25.9726 12.6558C25.6183 12.8284 25.2441 12.9157 24.8606 12.9157C23.3096 12.9157 21.5748 11.3939 21.5748 9.35694C21.5748 7.32002 23.3096 5.79788 24.8606 5.79788C25.2438 5.79788 25.6179 5.88545 25.9722 6.05777C26.4099 6.27106 26.9217 6.25761 27.3409 6.0218C27.7537 5.79006 28 5.38255 28 4.93219V1.35499C28 0.648804 27.3819 0.0739738 26.6219 0.0739738H1.3781C0.618058 0.0739737 0 0.648804 0 1.35499ZM26.6219 1.35499L26.6118 4.92281C26.0577 4.65353 25.4686 4.51686 24.8606 4.51686C22.3762 4.51686 20.1967 6.77865 20.1967 9.35694C20.1967 11.9352 22.3762 14.1967 24.8606 14.1967C25.4689 14.1967 26.0584 14.06 26.6219 13.7817L26.6219 24.8204H18.7601C18.2759 24.8204 17.8379 25.0494 17.5882 25.4328C17.3342 25.8225 17.3201 26.2982 17.5492 26.705C17.7346 27.0341 17.8285 27.3818 17.8285 27.7387C17.8285 29.1804 16.1913 30.793 14 30.793C11.8087 30.793 10.1715 29.1804 10.1715 27.7387C10.1715 27.3818 10.2654 27.0341 10.4508 26.7054C10.6796 26.2985 10.6661 25.8228 10.4121 25.4331C10.1628 25.0494 9.7244 24.8204 9.23991 24.8204H1.3781L1.38785 21.252C1.94131 21.5216 2.53044 21.6582 3.13941 21.6582C5.62409 21.6582 7.80361 19.3968 7.80361 16.8185C7.80361 14.2402 5.62409 11.9784 3.13941 11.9784C2.53044 11.9784 1.94131 12.1151 1.3781 12.3934L1.3781 1.35499L26.6219 1.35499Z" fill="#FFB5B5"/>
<path d="M26.6219 1.35499L26.6118 4.92281C26.0577 4.65353 25.4686 4.51686 24.8606 4.51686C22.3762 4.51686 20.1967 6.77865 20.1967 9.35694C20.1967 11.9352 22.3762 14.1967 24.8606 14.1967C25.4689 14.1967 26.0584 14.06 26.6219 13.7817L26.6219 24.8204H18.7601C18.2759 24.8204 17.8379 25.0494 17.5882 25.4328C17.3342 25.8225 17.3201 26.2982 17.5492 26.705C17.7346 27.0341 17.8285 27.3818 17.8285 27.7387C17.8285 29.1804 16.1913 30.793 14 30.793C11.8087 30.793 10.1715 29.1804 10.1715 27.7387C10.1715 27.3818 10.2654 27.0341 10.4508 26.7054C10.6796 26.2985 10.6661 25.8228 10.4121 25.4331C10.1628 25.0494 9.7244 24.8204 9.23991 24.8204H1.3781L1.38785 21.252C1.94131 21.5216 2.53044 21.6582 3.13941 21.6582C5.62409 21.6582 7.80361 19.3968 7.80361 16.8185C7.80361 14.2402 5.62409 11.9784 3.13941 11.9784C2.53044 11.9784 1.94131 12.1151 1.3781 12.3934L1.3781 1.35499L26.6219 1.35499Z" fill="#FFB5B5"/>
</svg>
