<svg width="32" height="28" viewBox="0 0 32 28" fill="none" xmlns="http://www.w3.org/2000/svg">
<path d="M0 26.6219L0 1.3781C0 0.618393 0.574511 0 1.281 0L24.7462 0C25.4524 0 26.0272 0.618393 26.0272 1.3781L26.0272 12.2205C26.5514 11.9211 27.0993 11.7737 27.6647 11.7737C29.974 11.7737 32 14.2069 32 16.9806C32 19.7543 29.974 22.1875 27.6647 22.1875C27.0987 22.1875 26.5507 22.0408 26.0366 21.7508L26.0272 26.6219C26.0272 27.3816 25.4524 28 24.7462 28L17.4386 28C16.9883 28 16.5811 27.7537 16.349 27.3412C16.1129 26.922 16.0998 26.4099 16.3127 25.9726C16.4848 25.6179 16.5723 25.2438 16.5723 24.8603C16.5723 23.3092 15.0505 21.5745 13.0136 21.5745C10.9767 21.5745 9.45489 23.3092 9.45489 24.8603C9.45489 25.2438 9.54245 25.6179 9.71478 25.9726C9.92838 26.4099 9.91431 26.922 9.6785 27.3412C9.44644 27.7537 9.03925 28 8.5889 28H1.281C0.574511 28 0 27.3816 0 26.6219Z" fill="#F8C00F"/>
</svg>
