<svg width="33" height="29" viewBox="0 0 33 29" fill="none" xmlns="http://www.w3.org/2000/svg">
<path d="M1.35505 28.7283H12.3935C12.8438 28.7283 13.251 28.482 13.4831 28.0695C13.7189 27.6503 13.7327 27.1385 13.5194 26.7005C13.347 26.3465 13.2595 25.9727 13.2595 25.5889C13.2595 24.0378 14.7816 22.3028 16.8185 22.3028C18.8555 22.3028 20.3773 24.0378 20.3773 25.5889C20.3773 25.9727 20.2897 26.3465 20.1174 26.7008C19.9041 27.1385 19.9179 27.6503 20.1537 28.0695C20.3857 28.482 20.7929 28.7283 21.243 28.7283H24.8205C25.527 28.7283 26.1015 28.1102 26.1015 27.3502L26.1109 19.4981C26.625 19.7878 27.1727 19.9348 27.7387 19.9348C30.0481 19.9348 32.074 17.502 32.074 14.7283C32.074 11.9546 30.0481 9.52171 27.7387 9.52171C27.1727 9.52171 26.625 9.66874 26.1015 9.96818V2.10637C26.1015 1.34633 25.527 0.728272 24.8205 0.728272H13.7818C13.3314 0.728272 12.9239 0.974551 12.6921 1.38737C12.4563 1.80659 12.4429 2.31833 12.6559 2.75572C12.8285 3.11 12.9158 3.48413 12.9158 3.86768C12.9158 5.41871 11.3939 7.15345 9.357 7.15345C7.32008 7.15345 5.79794 5.41871 5.79794 3.86768C5.79794 3.48447 5.88551 3.11033 6.05783 2.75605C6.27112 2.31833 6.25768 1.80659 6.02186 1.38737C5.79012 0.974551 5.38261 0.728272 4.93225 0.728272H1.35505C0.648865 0.728272 0.0740348 1.34633 0.0740348 2.10637L0.0740348 27.3502C0.0740348 28.1102 0.648865 28.7283 1.35505 28.7283ZM1.35505 2.10637L4.92287 2.11646C4.65359 2.67059 4.51692 3.25972 4.51692 3.86768C4.51692 6.35202 6.77871 8.53154 9.357 8.53154C11.9353 8.53154 14.1968 6.35202 14.1968 3.86768C14.1968 3.25938 14.0601 2.66992 13.7818 2.10637H24.8205V9.96818C24.8205 10.4523 25.0494 10.8904 25.4328 11.14C25.8225 11.3941 26.2982 11.4082 26.7051 11.1791C27.0341 10.9937 27.3819 10.8998 27.7387 10.8998C29.1805 10.8998 30.793 12.537 30.793 14.7283C30.793 16.9196 29.1805 18.5567 27.7387 18.5567C27.3819 18.5567 27.0341 18.4629 26.7054 18.2775C26.2985 18.0487 25.8228 18.0621 25.4332 18.3162C25.0494 18.5655 24.8205 19.0039 24.8205 19.4884L24.8205 27.3502L21.252 27.3404C21.5216 26.787 21.6583 26.1978 21.6583 25.5889C21.6583 23.1042 19.3968 20.9247 16.8185 20.9247C14.2402 20.9247 11.9785 23.1042 11.9785 25.5889C11.9785 26.1978 12.1151 26.787 12.3935 27.3502H1.35505L1.35505 2.10637Z" fill="#4B510B"/>
<path d="M1.35505 2.10637L4.92287 2.11646C4.65359 2.67059 4.51692 3.25972 4.51692 3.86768C4.51692 6.35202 6.77871 8.53154 9.357 8.53154C11.9353 8.53154 14.1968 6.35202 14.1968 3.86768C14.1968 3.25938 14.0601 2.66992 13.7818 2.10637H24.8205V9.96818C24.8205 10.4523 25.0494 10.8904 25.4328 11.14C25.8225 11.3941 26.2982 11.4082 26.7051 11.1791C27.0341 10.9937 27.3819 10.8998 27.7387 10.8998C29.1805 10.8998 30.793 12.537 30.793 14.7283C30.793 16.9196 29.1805 18.5567 27.7387 18.5567C27.3819 18.5567 27.0341 18.4629 26.7054 18.2775C26.2985 18.0487 25.8228 18.0621 25.4332 18.3162C25.0494 18.5655 24.8205 19.0039 24.8205 19.4884L24.8205 27.3502L21.252 27.3404C21.5216 26.787 21.6583 26.1978 21.6583 25.5889C21.6583 23.1042 19.3968 20.9247 16.8185 20.9247C14.2402 20.9247 11.9785 23.1042 11.9785 25.5889C11.9785 26.1978 12.1151 26.787 12.3935 27.3502H1.35505L1.35505 2.10637Z" fill="#4B510B"/>
</svg>
