<svg width="28" height="32" viewBox="0 0 28 32" fill="none" xmlns="http://www.w3.org/2000/svg">
<path d="M1.3781 0L26.6219 0C27.3816 0 28 0.574511 28 1.281V24.7462C28 25.4524 27.3816 26.0272 26.6219 26.0272H15.7795C16.0789 26.5514 16.2263 27.0993 16.2263 27.6647C16.2263 29.974 13.7931 32 11.0194 32C8.2457 32 5.8125 29.974 5.8125 27.6647C5.8125 27.0987 5.95919 26.5507 6.24921 26.0366L1.3781 26.0272C0.618394 26.0272 0 25.4524 0 24.7462L0 17.4386C0 16.9883 0.246281 16.5811 0.658768 16.349C1.07798 16.1129 1.59006 16.0998 2.02744 16.3127C2.38206 16.4848 2.75619 16.5723 3.13975 16.5723C4.69078 16.5723 6.42551 15.0505 6.42551 13.0136C6.42551 10.9767 4.69078 9.45489 3.13975 9.45489C2.75619 9.45489 2.38206 9.54245 2.02744 9.71478C1.59006 9.92838 1.07798 9.91431 0.658768 9.6785C0.246281 9.44644 0 9.03925 0 8.5889L0 1.281C0 0.574511 0.618394 0 1.3781 0Z" fill="#D21E1F"/>
</svg>
