<svg width="29" height="32" viewBox="0 0 29 32" fill="none" xmlns="http://www.w3.org/2000/svg">
<path d="M28.7284 30.719V19.6806C28.7284 19.2302 28.4821 18.823 28.0696 18.591C27.6504 18.3551 27.1387 18.3414 26.7006 18.5547C26.3467 18.727 25.9729 18.8146 25.589 18.8146C24.038 18.8146 22.3029 17.2924 22.3029 15.2555C22.3029 13.2186 24.038 11.6968 25.589 11.6968C25.9729 11.6968 26.3467 11.7843 26.7009 11.9566C27.1387 12.1699 27.6504 12.1562 28.0696 11.9204C28.4821 11.6883 28.7284 11.2811 28.7284 10.8311V7.25355C28.7284 6.54705 28.1103 5.97254 27.3503 5.97254L19.4982 5.96315C19.7879 5.449 19.9349 4.90138 19.9349 4.3353C19.9349 2.02598 17.5021 0 14.7284 0C11.9547 0 9.52184 2.02598 9.52184 4.3353C9.52184 4.90138 9.66887 5.449 9.96831 5.97254H2.10649C1.34645 5.97254 0.728394 6.54705 0.728394 7.25355V18.2923C0.728394 18.7426 0.974673 19.1501 1.3875 19.3819C1.80671 19.6177 2.31845 19.6312 2.75584 19.4182C3.11012 19.2455 3.48425 19.1583 3.8678 19.1583C5.41884 19.1583 7.15357 20.6801 7.15357 22.717C7.15357 24.754 5.41884 26.2761 3.8678 26.2761C3.48459 26.2761 3.11046 26.1885 2.75617 26.0162C2.31845 25.8029 1.80671 25.8164 1.3875 26.0522C0.974673 26.2839 0.728394 26.6914 0.728394 27.1418V30.719C0.728394 31.4252 1.34645 32 2.10649 32H27.3503C28.1103 32 28.7284 31.4252 28.7284 30.719ZM2.10649 30.719L2.11658 27.1512C2.67072 27.4204 3.25984 27.5571 3.8678 27.5571C6.35215 27.5571 8.53167 25.2953 8.53167 22.717C8.53167 20.1387 6.35215 17.8773 3.8678 17.8773C3.2595 17.8773 2.67004 18.0139 2.10649 18.2923V7.25355H9.96831C10.4525 7.25355 10.8905 7.02462 11.1402 6.64119C11.3942 6.25151 11.4083 5.77582 11.1792 5.36893C10.9938 5.03992 10.8999 4.69215 10.8999 4.3353C10.8999 2.89354 12.5371 1.28101 14.7284 1.28101C16.9197 1.28101 18.5569 2.89354 18.5569 4.3353C18.5569 4.69215 18.463 5.03992 18.2776 5.36862C18.0488 5.77551 18.0623 6.25119 18.3163 6.64088C18.5656 7.02462 19.004 7.25355 19.4885 7.25355H27.3503L27.3405 10.822C26.7871 10.5524 26.198 10.4157 25.589 10.4157C23.1043 10.4157 20.9248 12.6772 20.9248 15.2555C20.9248 17.8338 23.1043 20.0956 25.589 20.0956C26.198 20.0956 26.7871 19.9589 27.3503 19.6806V30.719H2.10649Z" fill="#A8CE27"/>
<path d="M2.10649 30.719L2.11658 27.1512C2.67072 27.4204 3.25984 27.5571 3.8678 27.5571C6.35215 27.5571 8.53167 25.2953 8.53167 22.717C8.53167 20.1387 6.35215 17.8773 3.8678 17.8773C3.2595 17.8773 2.67004 18.0139 2.10649 18.2923V7.25355H9.96831C10.4525 7.25355 10.8905 7.02462 11.1402 6.64119C11.3942 6.25151 11.4083 5.77582 11.1792 5.36893C10.9938 5.03992 10.8999 4.69215 10.8999 4.3353C10.8999 2.89354 12.5371 1.28101 14.7284 1.28101C16.9197 1.28101 18.5569 2.89354 18.5569 4.3353C18.5569 4.69215 18.463 5.03992 18.2776 5.36862C18.0488 5.77551 18.0623 6.25119 18.3163 6.64088C18.5656 7.02462 19.004 7.25355 19.4885 7.25355H27.3503L27.3405 10.822C26.7871 10.5524 26.198 10.4157 25.589 10.4157C23.1043 10.4157 20.9248 12.6772 20.9248 15.2555C20.9248 17.8338 23.1043 20.0956 25.589 20.0956C26.198 20.0956 26.7871 19.9589 27.3503 19.6806V30.719H2.10649Z" fill="#A8CE27"/>
</svg>
