<svg width="601" height="552" viewBox="0 0 601 552" fill="none" xmlns="http://www.w3.org/2000/svg">
<path d="M63.3647 364.329L64.3334 364.359V365.328L64.3334 550.993L249.829 549.674C249.844 549.247 249.871 548.692 249.915 548.023C250.025 546.357 250.246 543.983 250.69 541.137C251.578 535.451 253.363 527.852 256.953 520.24C260.545 512.626 265.956 504.973 274.109 499.224C282.271 493.47 293.119 489.667 307.504 489.667C321.894 489.667 332.665 493.556 340.705 499.443C348.735 505.323 353.977 513.149 357.399 520.931C360.819 528.71 362.434 536.476 363.195 542.287C363.576 545.195 363.745 547.62 363.817 549.322C363.847 550.001 363.861 550.566 363.867 551H549.311L549.311 361.328V360.474L550.155 360.34L550.156 360.34L550.156 360.34L550.161 360.34L550.185 360.336C550.206 360.332 550.24 360.326 550.285 360.319C550.32 360.312 550.362 360.305 550.411 360.296C550.488 360.282 550.582 360.265 550.692 360.244C551.052 360.175 551.584 360.066 552.264 359.909C553.625 359.595 555.576 359.087 557.919 358.317C562.61 356.775 568.858 354.186 575.099 350C587.55 341.65 600 326.938 600 301.333C600 275.738 587.56 261.87 575.138 254.353C568.906 250.582 562.665 248.405 557.977 247.171C555.635 246.555 553.686 246.176 552.326 245.951C551.647 245.838 551.115 245.765 550.755 245.719C550.576 245.697 550.439 245.681 550.349 245.671C550.304 245.666 550.27 245.663 550.248 245.661L550.225 245.658L550.22 245.658L550.22 245.658L550.219 245.658L549.311 245.574V244.662V60.0067L366.203 60.0067H365.156L365.204 58.9606L365.204 58.9603L365.204 58.9596L365.204 58.9535L365.206 58.9254C365.207 58.8997 365.208 58.8601 365.21 58.8071C365.213 58.7009 365.217 58.541 365.22 58.3308C365.225 57.9104 365.226 57.2892 365.206 56.4959C365.167 54.9091 365.047 52.6359 364.72 49.9056C364.067 44.4397 362.592 37.1703 359.316 29.9149C356.042 22.6641 350.979 15.4484 343.153 10.0426C335.334 4.64097 324.69 1 310.172 1C295.654 1 285.043 4.641 277.273 10.041C269.497 15.4451 264.498 22.6587 261.287 29.9083C258.074 37.1626 256.663 44.4313 256.057 49.8971C255.754 52.6273 255.653 54.9005 255.628 56.4873C255.615 57.2805 255.621 57.9017 255.631 58.3221C255.635 58.5323 255.641 58.6923 255.645 58.7984C255.647 58.8515 255.648 58.8911 255.65 58.9168L255.651 58.9448L255.651 58.9509L255.651 58.9517L255.71 60.0067H254.653L64.3334 60.0067V169.253V244.662V245.694L63.3018 245.661L63.3009 245.661L63.2943 245.661L63.2641 245.66C63.2364 245.66 63.1938 245.659 63.1367 245.658C63.0226 245.656 62.8507 245.655 62.6249 245.655C62.1732 245.657 61.506 245.667 60.6541 245.703C58.9498 245.774 56.5086 245.949 53.5765 246.361C47.7073 247.184 39.8984 248.954 32.1025 252.729C24.3116 256.501 16.549 262.268 10.7305 271.088C4.91504 279.903 1 291.83 1 307.995C1 321.627 4.89478 331.918 10.6978 339.706C16.5102 347.508 24.2775 352.853 32.0908 356.512C39.9044 360.171 47.7305 362.128 53.6118 363.169C56.55 363.689 58.9966 363.979 60.7053 364.139C61.5595 364.219 62.2288 364.267 62.6824 364.294C62.9092 364.308 63.082 364.317 63.1971 364.322C63.2546 364.324 63.2976 364.326 63.3257 364.327L63.3566 364.328L63.3635 364.329L63.3647 364.329Z" stroke="#FFB5B5" stroke-width="2"/>
</svg>
