<svg width="493" height="551" viewBox="0 0 493 551" fill="none" xmlns="http://www.w3.org/2000/svg">
<path d="M193.58 59.3011V59.8011H193.08H0.5V239.266C0.515198 239.265 0.530731 239.264 0.546539 239.263C0.93042 239.239 1.49054 239.214 2.20181 239.204C3.62408 239.186 5.65195 239.233 8.08383 239.496C12.9453 240.021 19.4354 241.408 25.9311 244.86C32.4317 248.314 38.9303 253.834 43.7999 262.607C48.6677 271.377 51.8928 283.372 51.8928 299.757C51.8928 332.553 38.9713 349.862 25.9831 358.953C19.5015 363.489 13.022 365.967 8.16339 367.31C5.73346 367.982 3.70688 368.371 2.28513 368.592C1.57419 368.703 1.01422 368.771 0.630432 368.812C0.58609 368.817 0.544098 368.821 0.504486 368.825L2.27786 550.5H187.718V539.563C187.718 535.155 189.406 522.389 197.824 510.711C206.266 499.001 221.437 488.438 248.288 488.438C275.144 488.438 289.825 499.173 297.766 511.566C305.682 523.922 306.855 537.855 306.855 544.226V550.5H396.235H492.495L490.876 373.523C490.795 373.521 490.704 373.518 490.604 373.515C490.108 373.499 489.384 373.466 488.463 373.401C486.621 373.272 483.993 373.012 480.84 372.494C474.538 371.459 466.128 369.386 457.711 365.237C449.292 361.086 440.857 354.852 434.528 345.49C428.196 336.125 423.992 323.66 423.992 307.085C423.992 273.9 440.838 255.765 457.68 245.952C466.091 241.051 474.498 238.226 480.798 236.626C483.95 235.825 486.577 235.33 488.419 235.036C489.339 234.888 490.064 234.791 490.56 234.73C490.676 234.716 490.78 234.704 490.871 234.693L490.718 59.8011H299.47H298.97V59.3011C298.97 43.3108 295.696 28.6092 287.66 17.9163C279.642 7.24811 266.831 0.5 247.588 0.5C227.351 0.5 213.882 7.25494 205.457 17.9257C197.016 28.6175 193.58 43.3151 193.58 59.3011Z" stroke="black"/>
</svg>
