<svg width="338" height="310" viewBox="0 0 338 310" fill="none" xmlns="http://www.w3.org/2000/svg">
<path d="M4.44055e-06 172.968C4.44055e-06 204.052 35.6184 205.166 35.6184 205.166V310L141.052 309.251C141.052 309.251 140.999 275.556 172.939 275.556C204.879 275.556 204.075 310 204.075 310H309.493V202.92C309.493 202.92 338 198.43 338 169.227C338 140.024 309.493 137.401 309.493 137.401V33.1378L205.951 33.1378C205.951 33.1378 207.493 0 174.44 0C141.386 0 143.216 33.1378 143.216 33.1378L35.6184 33.1378V95.0514V137.401C35.6184 137.401 4.44055e-06 136.278 4.44055e-06 172.968Z" fill="#4B510B"/>
</svg>
