<svg width="338" height="310" viewBox="0 0 338 310" fill="none" xmlns="http://www.w3.org/2000/svg">
<path d="M35.6341 204.666L36.1184 204.682V205.166V309.496L140.563 308.755C140.571 308.509 140.586 308.177 140.613 307.77C140.675 306.836 140.799 305.505 141.049 303.909C141.548 300.719 142.55 296.458 144.566 292.19C146.582 287.921 149.62 283.632 154.194 280.412C158.773 277.188 164.861 275.056 172.939 275.056C181.02 275.056 187.064 277.236 191.574 280.534C196.079 283.828 199.021 288.213 200.942 292.576C202.863 296.938 203.77 301.293 204.198 304.553C204.412 306.184 204.506 307.544 204.547 308.499C204.565 308.912 204.573 309.25 204.576 309.5H308.993V202.92V202.492L309.415 202.426L309.415 202.426L309.416 202.426L309.418 202.425L309.432 202.423L309.489 202.413C309.54 202.405 309.617 202.391 309.719 202.371C309.922 202.332 310.222 202.271 310.606 202.183C311.372 202.006 312.471 201.72 313.791 201.287C316.433 200.42 319.952 198.964 323.468 196.609C330.484 191.91 337.5 183.631 337.5 169.227C337.5 154.828 330.49 147.022 323.488 142.791C319.976 140.669 316.461 139.444 313.82 138.751C312.501 138.404 311.403 138.19 310.636 138.064C310.253 138.001 309.953 137.959 309.751 137.933C309.649 137.921 309.572 137.912 309.521 137.906L309.464 137.9L309.45 137.899L309.447 137.899L309.447 137.899L309.447 137.899L308.993 137.857V137.401V33.6378L205.951 33.6378H205.427L205.452 33.1146L205.452 33.1141L205.452 33.1105L205.453 33.0945C205.453 33.0886 205.453 33.0814 205.453 33.0729C205.454 33.0605 205.454 33.0454 205.455 33.0276C205.456 33.0036 205.456 32.9748 205.457 32.9412C205.458 32.891 205.46 32.8301 205.46 32.759C205.464 32.5222 205.464 32.1726 205.453 31.7263C205.431 30.8335 205.363 29.555 205.179 28.0195C204.811 24.9458 203.981 20.8569 202.135 16.7749C200.29 12.6953 197.436 8.63308 193.024 5.58936C188.614 2.54772 182.615 0.5 174.44 0.5C166.264 0.5 160.283 2.54774 155.901 5.58856C151.517 8.63145 148.699 12.6926 146.89 16.7716C145.08 20.853 144.285 24.9416 143.943 28.0152C143.773 29.5507 143.716 30.8292 143.702 31.722C143.695 32.1682 143.698 32.5179 143.703 32.7547C143.706 32.8731 143.709 32.9633 143.711 33.0232C143.712 33.0532 143.713 33.0756 143.714 33.0902L143.715 33.1062L143.715 33.1097L143.715 33.1103L143.744 33.6378H143.216L36.1184 33.6378V95.0514V137.401V137.917L35.6027 137.9L35.6021 137.9L35.5982 137.9L35.581 137.9C35.5652 137.9 35.5411 137.899 35.5088 137.899C35.4443 137.898 35.3472 137.897 35.2198 137.897C34.9651 137.898 34.589 137.904 34.109 137.924C33.1488 137.964 31.7738 138.062 30.1225 138.294C26.8173 138.757 22.4189 139.752 18.0269 141.876C13.6374 143.998 9.26215 147.243 5.98257 152.208C2.70444 157.169 0.5 163.88 0.5 172.968C0.5 180.636 2.69431 186.428 5.96613 190.814C9.24277 195.205 13.6204 198.213 18.021 200.271C22.4218 202.329 26.8289 203.429 30.1401 204.014C31.7945 204.306 33.1721 204.47 34.1346 204.56C34.6157 204.605 34.9928 204.632 35.2486 204.647C35.3764 204.655 35.4739 204.66 35.5389 204.663C35.5714 204.664 35.5958 204.665 35.6117 204.666L35.6293 204.666L35.6333 204.666L35.6341 204.666Z" stroke="black"/>
</svg>
