<svg width="230" height="258" viewBox="0 0 230 258" fill="none" xmlns="http://www.w3.org/2000/svg">
<path d="M115.508 -1.18498e-05C96.5118 -1.18498e-05 90.0777 12.7402 90.0777 27.7671H1.10058e-05V112.287C1.10058e-05 112.287 23.9764 109.791 23.9764 140.358C23.9764 170.925 1.10058e-05 172.485 1.10058e-05 172.485L0.831699 258H87.8096V252.645C87.8096 248.59 90.9239 228.94 115.834 228.94C140.745 228.94 142.924 248.902 142.924 254.828V258H184.856H230L229.24 174.668C229.24 174.668 198.039 174.668 198.039 143.789C198.039 112.91 229.24 110.103 229.24 110.103L229.168 27.7671H139.712C139.712 12.7402 133.585 -1.18498e-05 115.508 -1.18498e-05Z" fill="#4B510B"/>
</svg>
