<svg width="648" height="450" viewBox="0 0 648 450" fill="none" xmlns="http://www.w3.org/2000/svg">
<mask id="path-1-inside-1_211_198" fill="white">
<path fill-rule="evenodd" clip-rule="evenodd" d="M0 0H586.425V170.028C620.607 171.004 648 197.481 648 230C648 262.52 620.607 288.996 586.425 289.972V450H0V286.968C33.316 285.913 60 258.572 60 225C60 191.428 33.316 164.087 0 163.032V0Z"/>
</mask>
<path d="M586.425 0H588.425V-2H586.425V0ZM0 0V-2H-2V0H0ZM586.425 170.028H584.425V171.972L586.368 172.027L586.425 170.028ZM586.425 289.972L586.368 287.973L584.425 288.028V289.972H586.425ZM586.425 450V452H588.425V450H586.425ZM0 450H-2V452H0V450ZM0 286.968L-0.0633501 284.969L-2 285.031V286.968H0ZM0 163.032H-2V164.969L-0.0633501 165.031L0 163.032ZM586.425 -2H0V2H586.425V-2ZM588.425 170.028V0H584.425V170.028H588.425ZM586.368 172.027C619.576 172.975 646 198.668 646 230H650C650 196.293 621.638 169.032 586.482 168.029L586.368 172.027ZM646 230C646 261.332 619.576 287.025 586.368 287.973L586.482 291.971C621.638 290.968 650 263.707 650 230H646ZM588.425 450V289.972H584.425V450H588.425ZM0 452H586.425V448H0V452ZM-2 286.968V450H2V286.968H-2ZM58 225C58 257.489 32.1768 283.948 -0.0633501 284.969L0.0633501 288.967C34.4553 287.877 62 259.656 62 225H58ZM-0.0633501 165.031C32.1768 166.052 58 192.511 58 225H62C62 190.344 34.4553 162.123 0.0633501 161.033L-0.0633501 165.031ZM-2 0V163.032H2V0H-2Z" fill="#A8CE27" mask="url(#path-1-inside-1_211_198)"/>
</svg>
