<svg width="185" height="170" viewBox="0 0 185 170" fill="none" xmlns="http://www.w3.org/2000/svg">
<path d="M-6.70552e-06 94.8536C-6.70552e-06 111.9 19.4953 112.51 19.4953 112.51V170L77.2031 169.589C77.2031 169.589 77.1738 151.111 94.6559 151.111C112.138 151.111 111.698 170 111.698 170H169.397V111.279C169.397 111.279 185 108.816 185 92.8019C185 76.7874 169.397 75.3488 169.397 75.3488V18.1724L112.725 18.1724C112.725 18.1724 113.569 0 95.4772 0C77.3859 0 78.3873 18.1724 78.3873 18.1724L19.4953 18.1724V52.125V75.3488C19.4953 75.3488 -6.70552e-06 74.7328 -6.70552e-06 94.8536Z" fill="#4B510B"/>
</svg>
