<svg width="370" height="414" viewBox="0 0 370 414" fill="none" xmlns="http://www.w3.org/2000/svg">
<path d="M145.142 44.5114V45.0114H144.642H0.500153V179.462C0.78363 179.446 1.17068 179.43 1.64795 179.423C2.71771 179.409 4.242 179.445 6.06958 179.643C9.7225 180.038 14.6011 181.083 19.4851 183.683C24.3742 186.286 29.2611 190.446 32.9219 197.054C36.5809 203.659 39.0001 212.684 39.0001 225C39.0001 249.654 29.3022 262.686 19.5372 269.534C14.6672 272.949 9.79922 274.814 6.14926 275.825C4.32367 276.331 2.80069 276.624 1.73145 276.79C1.20816 276.872 0.793304 276.923 0.504608 276.955L1.83078 413.084H140.5V405C140.5 401.671 141.769 392.062 148.095 383.27C154.443 374.447 165.847 366.5 186 366.5C206.16 366.5 217.199 374.577 223.171 383.918C229.12 393.221 230 403.707 230 408.5V413.084H296.832H368.817L367.606 280.49C367.579 280.489 367.552 280.488 367.523 280.487C367.15 280.475 366.605 280.45 365.914 280.402C364.531 280.304 362.558 280.109 360.192 279.719C355.463 278.941 349.149 277.382 342.83 274.26C336.508 271.137 330.171 266.445 325.414 259.396C320.656 252.344 317.5 242.963 317.5 230.5C317.5 205.538 330.152 191.889 342.799 184.505C349.113 180.819 355.422 178.695 360.15 177.492C362.515 176.89 364.487 176.518 365.87 176.296C366.561 176.185 367.106 176.112 367.478 176.066C367.522 176.061 367.563 176.056 367.601 176.051L367.487 45.0114H224.343H223.843V44.5114C223.843 32.5227 221.392 21.5183 215.394 13.5222C209.415 5.55099 199.859 0.499573 185.476 0.499573C170.347 0.499573 160.296 5.55786 154.013 13.5316C147.714 21.5266 145.142 32.527 145.142 44.5114Z" stroke="black"/>
</svg>
