<svg width="370" height="414" viewBox="0 0 370 414" fill="none" xmlns="http://www.w3.org/2000/svg">
<path d="M185.476 -0.000427246C154.974 -0.000427246 144.642 20.4226 144.642 44.5114H0.000152588V180C0.000152588 180 38.5001 176 38.5001 225C38.5001 273.999 0.000152588 276.5 0.000152588 276.5L1.33563 413.584H141V405C141 398.499 146.001 367 186 367C226 367 229.5 398.999 229.5 408.5V413.584H296.832H369.322L368.102 280C368.102 280 318 280 318 230.5C318 181 368.102 176.5 368.102 176.5L367.986 44.5114H224.343C224.343 20.4226 214.503 -0.000427246 185.476 -0.000427246Z" fill="#4B510B"/>
</svg>
