<svg width="115" height="106" viewBox="0 0 115 106" fill="none" xmlns="http://www.w3.org/2000/svg">
<path d="M12.1344 69.6538L12.1347 69.6538L12.6187 69.6691V70.1536V105.496L47.5106 105.247C47.5113 105.237 47.5119 105.227 47.5126 105.216C47.5342 104.888 47.5774 104.424 47.664 103.867C47.8369 102.756 48.1848 101.266 48.8879 99.7704C49.5917 98.2732 50.6576 96.7564 52.2716 95.6143C53.8902 94.469 56.0297 93.7222 58.8402 93.7222C61.6531 93.7222 63.7797 94.4864 65.3762 95.6596C66.9674 96.8289 68.0001 98.3808 68.6703 99.9105C69.34 101.439 69.6546 102.961 69.8027 104.095C69.8769 104.664 69.9098 105.138 69.924 105.473C69.9244 105.482 69.9248 105.491 69.9252 105.5H104.801V69.3855V68.9584L105.222 68.8917L105.222 68.8917L105.223 68.8917L105.223 68.8916L105.226 68.8911L105.243 68.8883C105.258 68.8855 105.283 68.8811 105.315 68.8748C105.381 68.8623 105.479 68.8422 105.605 68.8129C105.857 68.7544 106.221 68.6594 106.66 68.5147C107.538 68.225 108.706 67.7389 109.871 66.9549C112.185 65.3974 114.5 62.6607 114.5 57.8647C114.5 53.0732 112.191 50.5028 109.891 49.1063C108.73 48.4016 107.566 47.9934 106.689 47.7618C106.251 47.6462 105.888 47.5753 105.636 47.5335C105.51 47.5126 105.412 47.499 105.347 47.4907C105.314 47.4866 105.29 47.4838 105.274 47.4821L105.258 47.4804L105.255 47.4801L105.255 47.48L105.254 47.48L105.254 47.48L104.801 47.4381V46.9822V11.831L70.0721 11.831H69.5485L69.5727 11.3083L69.5727 11.3082L69.5727 11.3079L69.5727 11.3078L69.5728 11.3036L69.5735 11.2834C69.5741 11.2647 69.5748 11.2357 69.5753 11.1971C69.5764 11.12 69.5765 11.0046 69.5729 10.8564C69.5656 10.5599 69.5431 10.1331 69.4819 9.61967C69.3593 8.59025 69.083 7.22692 68.4727 5.87066C67.8635 4.51664 66.9266 3.18043 65.4855 2.18138C64.0475 1.18452 62.0742 0.5 59.3507 0.5C56.6271 0.5 54.6606 1.18453 53.2324 2.18058C51.8012 3.1788 50.8765 4.51396 50.2792 5.86737C49.6809 7.22308 49.4164 8.58605 49.3027 9.61543C49.246 10.1288 49.2272 10.5555 49.2224 10.8521C49.2201 11.0003 49.2212 11.1157 49.2229 11.1928C49.2238 11.2314 49.2247 11.2603 49.2255 11.279L49.2263 11.2993L49.2265 11.3035L49.2265 11.3036L49.2265 11.3039L49.2265 11.304L49.2555 11.831H48.7273L12.6187 11.831V32.5014L12.6187 46.9822V47.4983L12.1033 47.4819H12.1032L12.1029 47.4819L12.1027 47.4819L12.0982 47.4818L12.0764 47.4814C12.0564 47.4811 12.0253 47.4808 11.984 47.4809C11.9014 47.4812 11.7778 47.483 11.6191 47.4897C11.3015 47.5032 10.8446 47.5359 10.2949 47.6133C9.19305 47.7685 7.73226 48.1014 6.27789 48.8081C4.82612 49.5136 3.38814 50.5876 2.31136 52.2256C1.23596 53.8614 0.5 56.0913 0.5 59.144C0.5 61.699 1.22592 63.6101 2.29501 65.0501C3.36879 66.4965 4.80902 67.4945 6.27202 68.182C7.73522 68.8697 9.20469 69.2389 10.3126 69.4357C10.8653 69.5339 11.325 69.5886 11.6448 69.6187C11.8046 69.6337 11.9293 69.6426 12.0129 69.6476C12.0547 69.6502 12.0862 69.6518 12.1067 69.6527L12.1291 69.6536L12.1339 69.6538L12.1344 69.6538Z" stroke="black"/>
</svg>
